<?xml version="1.0" encoding="UTF-8"?>
<svg id="Layer_1" xmlns="http://www.w3.org/2000/svg" version="1.1" viewBox="0 0 1440 1440">
  <!-- Generator: Adobe Illustrator 30.2.1, SVG Export Plug-In . SVG Version: 2.1.1 Build 1)  -->
  <defs>
    <style>
      .st0 {
        fill: #fff;
      }
    </style>
  </defs>
  <path class="st0" d="M744.33,705.86v-1.07h-2.44v1.07h-29.77v-1.07h-2.44v1.07h-.76l-1.42,1.42c-.87-1.51-4.87-1.42-4.87-1.42,0,0,1.83,1.73,2.64,3.66l-.3,3.55c-7.23,3.86-9.95,14.97-10.77,19.43-.18.99.58,1.89,1.58,1.89h8.44c.89,0,1.6-.72,1.6-1.61-.03-4.4,1.37-7.67,2.96-9.96.72.43,3.14,1.74,6,1.74.76,0,1.56-.09,2.36-.32,2.56-.73,4.59-2.65,6.06-5.69h1.88c.84,0,1.52-.68,1.52-1.52v-4.26h18.68v-6.9h-.94ZM716.47,721.9c-2.54.73-5.14-.44-6.15-.99.95-1,1.81-1.67,2.34-2.02l.95,2.26c.1.23.32.37.56.37.08,0,.16-.01.24-.05.31-.13.46-.49.33-.8l-.89-2.13h6.57c-1.06,1.77-2.38,2.9-3.95,3.35Z"/>
</svg>