<?xml version="1.0" encoding="UTF-8"?>
<svg id="Layer_1" xmlns="http://www.w3.org/2000/svg" version="1.1" viewBox="0 0 1440 1440">
  <!-- Generator: Adobe Illustrator 30.2.1, SVG Export Plug-In . SVG Version: 2.1.1 Build 1)  -->
  <defs>
    <style>
      .st0 {
        fill: #fff;
      }
    </style>
  </defs>
  <g>
    <path class="st0" d="M668.27,771.69c-2.32.61-5.21-2.49-6.45-4-1.13,1.77-1.14,4.04-.05,5.82,4.75,1.57,6.5-1.83,6.5-1.83Z"/>
    <path class="st0" d="M699.95,748.39l-13.07,18.06,15.39,13.71,14.67-17.26-17-14.5ZM703.47,774.8s-.02.03-.04.04c-.25.25-.65.27-.92.04l-11.74-9.94c-.29-.24-.32-.67-.08-.95.24-.28.67-.32.95-.08l11.74,9.94c.29.24.32.67.08.95ZM707.7,769.48s-.02.03-.04.04c-.25.25-.64.27-.92.04l-11.74-9.94c-.29-.24-.32-.67-.08-.95.25-.29.67-.32.96-.08l11.74,9.94c.29.24.32.67.08.95ZM711.67,764.42s-.02.03-.04.04c-.25.25-.65.27-.92.04l-11.74-9.94c-.28-.24-.32-.67-.08-.95.25-.29.67-.32.95-.08l11.74,9.94c.29.24.32.67.08.95Z"/>
    <g>
      <path class="st0" d="M753.69,641.69l-73.9,68.06c-.92.85-1.02,2.26-.23,3.23l1.55,1.92,12.68,12.23-.11.11h0s.12-.12.12-.12l3.48,3.48c.8.8,2.12.75,2.86-.11l64.88-76.71s.01-.02.02-.02c.83-.98.69-2.46-.21-3.37l-8.64-8.64c-.68-.68-1.79-.7-2.5-.05Z"/>
      <path class="st0" d="M813.81,584.12l-35.23,35.35-.48,4.91-3.34,3.11-14.76-8.25c-2.52-1.4-5.66.14-6.07,2.99-.63,4.38-.77,10.76,1.78,17.13l7.87,7.87,8.78-8.73,5.85,1.52c.29.07.6,0,.81-.21l1.43-1.38c.25-.24.33-.61.2-.94l-2.07-5.22,3.35-3.83,4.54-.23,35.64-35.77-.06-.06c.41-.41-1.11-2.59-3.39-4.87-2.28-2.28-4.46-3.8-4.87-3.39ZM769.23,629.99c-.36.36-8.19,7.98-8.19,7.98,0,0-3.32-8.94-2.64-12.47.12-.64.82-.99,1.41-.69,2.53,1.26,9.72,4.89,9.42,5.19Z"/>
    </g>
    <rect class="st0" x="638.67" y="753.39" width="19.19" height="3.39" rx="1.04" ry="1.04" transform="translate(-344.05 679.52) rotate(-45)"/>
    <path class="st0" d="M636.54,762.84h3.77c.74,0,1.33.6,1.33,1.33v1.51c0,.74-.6,1.33-1.33,1.33h-3.77c-.74,0-1.33-.6-1.33-1.33v-1.51c0-.74.6-1.33,1.33-1.33Z" transform="translate(-353.88 675.34) rotate(-44.99)"/>
    <g>
      <path class="st0" d="M692.6,728.33l-12.41-12.41-4.58,4.98-4.29-4.29c-2.64-2.64-6.81-3.05-9.85-.89-.53.38-1.09.83-1.66,1.35-4.05,3.68-22.42,19.27-30.75,26.32-2.69,2.27-3.83,5.89-2.92,9.29.76,2.85,1.95,6.29,3.73,9.19l-2.73,2.65c-.99.97-1.27,2.45-.69,3.71l1.45,3.12,12.99,12.99c.14-.12.28-.26.4-.34,0,0,12.77-8.3,13.73,1.6l5.99,24.67s1.2,2.63,3.59,1.2c2.4-1.44,11.16-7.33,11.16-7.33,0,0,1.53-3.45-.87-5.36-2.39-1.92-6.95-16.53-6.95-16.53l15.09-16.05,1.68,1.68,15.09-20.84-10.54-10.54-.48-4.31,3.92-3.92h0s-.1.1-.1.1ZM636.27,768.49l-1.37-1.37c-.68-.68-.68-1.79,0-2.47l18-18c.68-.68,1.78-.68,2.47,0l1.37,1.37c.68.68.68,1.79,0,2.47l-18,18c-.68.68-1.79.68-2.47,0ZM674.81,771.37l-3.83,3.83c-2.51,2.51-6.59,2.51-9.1,0-2.51-2.51-2.51-6.59,0-9.1l3.83-3.83c2.51-2.51,6.59-2.51,9.1,0,2.51,2.51,2.51,6.59,0,9.1ZM666.19,725.87l-27.3,27.3c-1.59,1.59-4.16,1.59-5.75,0-1.59-1.59-1.59-4.16,0-5.75l27.3-27.3c1.59-1.59,4.16-1.59,5.75,0,1.59,1.59,1.59,4.16,0,5.75Z"/>
      <path class="st0" d="M626.94,772.28l-59.46,50.41c-3.01,2.56-3.14,7.16-.27,9.88l.86.81c.05.05.1.1.14.15,1.12,1.3,16.71,19.13,29.52,21.37,3.29.57,6.55-1.16,7.97-4.18,6.22-13.19,26.91-56.53,34.25-65.42l-13.02-13.02Z"/>
    </g>
  </g>
  <g>
    <path class="st0" d="M771.01,771.69c2.32.61,5.21-2.49,6.45-4,1.13,1.77,1.14,4.04.05,5.82-4.75,1.57-6.5-1.83-6.5-1.83Z"/>
    <path class="st0" d="M722.33,762.89l14.67,17.26,15.39-13.71-13.07-18.06-17,14.5ZM735.89,773.85l11.74-9.94c.29-.24.71-.21.95.08.24.28.21.71-.08.95l-11.74,9.94c-.27.23-.67.21-.92-.04-.01-.01-.03-.03-.04-.04-.24-.28-.21-.71.08-.95ZM731.66,768.52l11.74-9.94c.29-.24.7-.21.96.08.24.28.21.71-.08.95l-11.74,9.94c-.27.23-.67.21-.92-.04-.01-.01-.03-.03-.04-.04-.24-.29-.21-.71.08-.95ZM727.69,763.47l11.74-9.94c.29-.24.7-.21.95.08.24.28.21.71-.08.95l-11.74,9.94c-.27.23-.67.21-.92-.04-.01-.01-.03-.03-.04-.04-.24-.28-.21-.71.08-.95Z"/>
    <g>
      <path class="st0" d="M685.59,641.69l73.9,68.06c.92.85,1.02,2.26.23,3.23l-1.55,1.92-12.68,12.23.11.11h0s-.12-.12-.12-.12l-3.48,3.48c-.8.8-2.12.75-2.86-.11l-64.88-76.71s-.01-.02-.02-.02c-.83-.98-.69-2.46.21-3.37l8.64-8.64c.68-.68,1.79-.7,2.5-.05Z"/>
      <path class="st0" d="M620.6,587.51c-2.28,2.28-3.8,4.46-3.39,4.87l-.06.06,35.64,35.77,4.54.23,3.35,3.83-2.07,5.22c-.13.32-.05.69.2.94l1.43,1.38c.21.21.52.29.81.21l5.85-1.52,8.78,8.73,7.87-7.87c2.56-6.37,2.42-12.75,1.78-17.13-.41-2.85-3.55-4.4-6.07-2.99l-14.76,8.25-3.34-3.11-.48-4.91-35.23-35.35c-.41-.41-2.59,1.11-4.87,3.39ZM679.47,624.8c.58-.29,1.29.05,1.41.69.68,3.53-2.64,12.47-2.64,12.47,0,0-7.83-7.62-8.19-7.98-.3-.3,6.89-3.92,9.42-5.19Z"/>
    </g>
    <path class="st0" d="M782.45,753.39h17.12c.57,0,1.04.47,1.04,1.04v1.31c0,.57-.47,1.04-1.04,1.04h-17.12c-.57,0-1.04-.47-1.04-1.04v-1.31c0-.57.47-1.04,1.04-1.04Z" transform="translate(816.45 1848.34) rotate(-135)"/>
    <path class="st0" d="M798.97,762.84h3.77c.74,0,1.33.6,1.33,1.33v1.51c0,.74-.6,1.33-1.33,1.33h-3.77c-.74,0-1.33-.6-1.33-1.33v-1.51c0-.74.6-1.33,1.33-1.33Z" transform="translate(826.4 1872.09) rotate(-135.01)"/>
    <g>
      <path class="st0" d="M746.58,728.23h0s3.92,3.92,3.92,3.92l-.48,4.31-10.54,10.54,15.09,20.84,1.68-1.68,15.09,16.05s-4.55,14.61-6.95,16.53c-2.4,1.92-.87,5.36-.87,5.36,0,0,8.77,5.9,11.16,7.33,2.4,1.44,3.59-1.2,3.59-1.2l5.99-24.67c.96-9.9,13.73-1.6,13.73-1.6.12.09.26.22.4.34l12.99-12.99,1.45-3.12c.58-1.26.31-2.74-.69-3.71l-2.73-2.65c1.78-2.89,2.97-6.33,3.73-9.19.91-3.4-.24-7.01-2.92-9.29-8.32-7.05-26.7-22.64-30.75-26.32-.57-.52-1.13-.97-1.66-1.35-3.04-2.17-7.21-1.75-9.85.89l-4.29,4.29-4.58-4.98-12.41,12.41-.1-.1ZM782.55,748.02l1.37-1.37c.68-.68,1.79-.68,2.47,0l18,18c.68.68.68,1.78,0,2.47l-1.37,1.37c-.68.68-1.79.68-2.47,0l-18-18c-.68-.68-.68-1.79,0-2.47ZM764.47,762.27c2.51-2.51,6.59-2.51,9.1,0l3.83,3.83c2.51,2.51,2.51,6.59,0,9.1-2.51,2.51-6.59,2.51-9.1,0l-3.83-3.83c-2.51-2.51-2.51-6.59,0-9.1ZM773.09,720.12c1.59-1.59,4.16-1.59,5.75,0l27.3,27.3c1.59,1.59,1.59,4.16,0,5.75-1.59,1.59-4.16,1.59-5.75,0l-27.3-27.3c-1.59-1.59-1.59-4.16,0-5.75Z"/>
      <path class="st0" d="M812.34,772.28l59.46,50.41c3.01,2.56,3.14,7.16.27,9.88l-.86.81c-.05.05-.1.1-.14.15-1.12,1.3-16.71,19.13-29.52,21.37-3.29.57-6.55-1.16-7.97-4.18-6.22-13.19-26.91-56.53-34.25-65.42l13.02-13.02Z"/>
    </g>
  </g>
</svg>