<?xml version="1.0" encoding="UTF-8"?>
<svg id="Layer_1" xmlns="http://www.w3.org/2000/svg" version="1.1" viewBox="0 0 1440 1440">
  <!-- Generator: Adobe Illustrator 30.2.1, SVG Export Plug-In . SVG Version: 2.1.1 Build 1)  -->
  <defs>
    <style>
      .st0 {
        fill: #fff;
      }
    </style>
  </defs>
  <polygon class="st0" points="708.53 730.72 707.7 731.47 710.29 731.47 711.11 730.73 708.1 727.98 712.85 726.24 710.73 719.55 716.17 723.4 720.34 714.14 721.37 722.87 724.7 721.14 724.7 725.7 730.35 725.93 726.34 729.84 727.1 731.47 729.02 731.47 728.44 730.22 734.46 724.36 726.44 724.03 726.44 718.28 722.8 720.17 721.33 707.71 715.45 720.76 707.5 715.13 710.69 725.18 704.82 727.34 708.53 730.72"/>
  <polygon class="st0" points="714.45 731.47 723.56 731.47 722.99 730.56 724.25 727.42 722.04 728.38 721.3 725.71 720.03 728.16 719.04 722.61 717.21 727.59 714.84 725.96 714.84 729.07 713.21 729.07 714.84 730.85 714.45 731.47"/>
</svg>