<?xml version="1.0" encoding="UTF-8"?>
<svg id="Layer_1" xmlns="http://www.w3.org/2000/svg" version="1.1" viewBox="0 0 1440 1440">
  <!-- Generator: Adobe Illustrator 30.2.1, SVG Export Plug-In . SVG Version: 2.1.1 Build 1)  -->
  <defs>
    <style>
      .st0 {
        fill: #fff;
      }
    </style>
  </defs>
  <path class="st0" d="M744.1,717.63h-7.14c-.9-8.08-7.33-14.5-15.41-15.41v-7.1c0-1.08-.88-1.96-1.96-1.96s-1.96.88-1.96,1.96v7.1c-8.08.9-14.5,7.33-15.41,15.41h-7.05c-1.08,0-1.96.88-1.96,1.96s.88,1.96,1.96,1.96h7.05c.9,8.08,7.33,14.5,15.41,15.41v7.1c0,1.08.88,1.96,1.96,1.96s1.96-.88,1.96-1.96v-7.1c8.08-.91,14.5-7.33,15.41-15.41h7.14c1.08,0,1.96-.88,1.96-1.96s-.88-1.96-1.96-1.96ZM721.55,733.19v-8.71l-1.94-1.94-1.98,1.94v8.71c-6.01-.86-10.78-5.63-11.64-11.64h8.75l1.94-1.98-1.94-1.94h-8.75c.86-6.01,5.63-10.78,11.64-11.64v8.71l1.98,1.94,1.94-1.94v-8.71c6.01.86,10.78,5.63,11.64,11.64h-8.66l-1.94,1.94,1.94,1.98h8.66c-.86,6.01-5.63,10.78-11.64,11.64Z"/>
</svg>