<?xml version="1.0" encoding="UTF-8"?>
<svg id="Layer_1" xmlns="http://www.w3.org/2000/svg" version="1.1" viewBox="0 0 1440 1440">
  <!-- Generator: Adobe Illustrator 30.2.1, SVG Export Plug-In . SVG Version: 2.1.1 Build 1)  -->
  <defs>
    <style>
      .st0 {
        fill: #fff;
      }
    </style>
  </defs>
  <polygon class="st0" points="720.03 728.76 719.27 728.76 719.65 726.58 720.03 728.76"/>
  <path class="st0" d="M728.35,727.28c0,.39-.15.77-.44,1.05-.28.28-.66.43-1.05.43h-2.83l-.24-2.96h3.07c.82,0,1.48.66,1.49,1.48h0Z"/>
  <path class="st0" d="M730.37,726.55v3.99c0,1.25-1.02,2.26-2.27,2.26h-16.9c-1.25,0-2.27-1.01-2.27-2.26v-3.99c0-1.25,1.02-2.27,2.27-2.27h4.42l-.03.46h-3.16c-.67,0-1.31.27-1.79.74-.99.98-1,2.59-.01,3.58.48.48,1.13.75,1.81.75h14.43c1.4,0,2.54-1.13,2.54-2.53,0,0,0,0,0,0,0-1.4-1.14-2.53-2.54-2.53h-3.16l-.03-.46h4.42c1.25,0,2.27,1.01,2.27,2.27Z"/>
  <path class="st0" d="M715.5,725.79l-.24,2.96h-2.83c-.82,0-1.48-.66-1.49-1.48,0,0,0,0,0,0,0-.39.16-.77.44-1.04.28-.28.65-.44,1.05-.44h3.07Z"/>
  <path class="st0" d="M724.64,720.99s-.09.02-.14.02c-.29,0-.55-.21-.6-.5l-.94-5.12c-.05-.29-.32-.48-.61-.43-.27.05-.46.29-.43.57l1.06,13.24h-1.88l-.93-5.3c-.05-.29-.33-.48-.61-.43-.22.04-.39.21-.43.43l-.93,5.3h-1.88l1.06-13.24c.03-.29-.19-.55-.48-.57-.27-.02-.52.16-.57.43l-.94,5.12c-.03.16-.12.31-.26.4-.28.19-.67.11-.86-.17-.07-.1-.1-.22-.1-.34,0-.04,0-.09.02-.13l1.64-7.96c.09-.44.52-.74.96-.67l2.15.32c.47.07.95.07,1.42,0l2.15-.32c.45-.07.87.23.96.67l1.64,7.96c.07.33-.14.65-.47.72Z"/>
  <path class="st0" d="M721.43,708.16c0,.99-.79,1.79-1.78,1.8-.99,0-1.79-.79-1.8-1.78,0-.99.79-1.79,1.78-1.8,0,0,0,0,.01,0,.98,0,1.78.79,1.79,1.78Z"/>
  <path class="st0" d="M709.31,721.69c.29,0,.53-.24.53-.53h0v-7.51c0-.29-.24-.53-.53-.53-.29,0-.53.24-.53.53v7.51c0,.29.24.53.53.53h0Z"/>
  <path class="st0" d="M711.5,713.18c.29,0,.53-.24.53-.53h0v-2.52c0-.29-.23-.53-.53-.53-.29,0-.53.23-.53.53,0,0,0,0,0,0v2.52c0,.29.24.53.53.53h0Z"/>
  <path class="st0" d="M711.5,721.69c.29,0,.53-.24.53-.53h0v-2.52c0-.29-.24-.53-.53-.53-.29,0-.52.24-.53.53v2.52c0,.29.24.53.53.53h0Z"/>
  <path class="st0" d="M729.97,721.69c.29,0,.53-.24.53-.53h0v-7.51c0-.29-.24-.53-.53-.53s-.53.24-.53.53h0v7.51c0,.29.24.53.53.53h0Z"/>
  <path class="st0" d="M727.78,713.18c.29,0,.53-.24.53-.53h0v-2.52c0-.29-.24-.53-.53-.53s-.53.24-.53.53v2.52c0,.29.24.53.53.53h0Z"/>
  <path class="st0" d="M727.78,721.69c.29,0,.53-.24.53-.53h0v-2.52c0-.29-.24-.53-.53-.53s-.53.24-.53.53h0v2.52c0,.29.24.53.53.53h0Z"/>
</svg>